<svg xmlns="http://www.w3.org/2000/svg" version="1.1" xmlns:xlink="http://www.w3.org/1999/xlink" viewBox="0 0 200 200" width="200" height="200"><metadata><rdf:RDF xmlns:rdf="http://www.w3.org/1999/02/22-rdf-syntax-ns#" xmlns:dc="http://purl.org/dc/elements/1.1/"><rdf:Description><dc:creator>RealFaviconGenerator</dc:creator><dc:source>https://realfavicongenerator.net</dc:source></rdf:Description></rdf:RDF></metadata><rect width="200" height="200" fill="url('#gradient')"></rect><defs><linearGradient id="gradient" gradientTransform="rotate(45 0.5 0.5)"><stop offset="0%" stop-color="#5f645b"></stop><stop offset="100%" stop-color="#4e3721"></stop></linearGradient></defs><g><g fill="#d2f0f3" transform="matrix(2.627512473271561,0,0,2.627512473271561,6.56413310609031,114.09781498409389)" stroke="#a7b7b5" stroke-width="0.2"><path d="M4.73-14.22L4.73 0L1.31 0L1.31-14.22L4.73-14.22ZM6.89-10.57L9.98-10.57L10.09-9.33Q11.18-10.76 13.11-10.76L13.11-10.76Q14.76-10.76 15.57-9.78Q16.39-8.79 16.42-6.81L16.42-6.81L16.42 0L13.12 0L13.12-6.67Q13.12-7.47 12.79-7.85Q12.47-8.22 11.62-8.22L11.62-8.22Q10.65-8.22 10.19-7.46L10.19-7.46L10.19 0L6.89 0L6.89-10.57ZM18.78-13.19L22.07-13.19L22.07-10.57L23.81-10.57L23.81-8.28L22.07-8.28L22.07-3.45Q22.07-2.85 22.29-2.62Q22.50-2.38 23.13-2.38L23.13-2.38Q23.62-2.38 23.96-2.44L23.96-2.44L23.96-0.09Q23.07 0.20 22.10 0.20L22.10 0.20Q20.40 0.20 19.59-0.61Q18.78-1.41 18.78-3.04L18.78-3.04L18.78-8.28L17.43-8.28L17.43-10.57L18.78-10.57L18.78-13.19ZM30.21 0.20L30.21 0.20Q27.78 0.20 26.28-1.25Q24.78-2.71 24.78-5.03L24.78-5.03L24.78-5.30Q24.78-6.92 25.38-8.16Q25.98-9.40 27.13-10.08Q28.28-10.76 29.86-10.76L29.86-10.76Q32.09-10.76 33.38-9.38Q34.67-8.00 34.67-5.53L34.67-5.53L34.67-4.25L28.13-4.25Q28.30-3.36 28.90-2.85Q29.49-2.34 30.44-2.34L30.44-2.34Q32.00-2.34 32.88-3.44L32.88-3.44L34.38-1.66Q33.77-0.81 32.64-0.31Q31.51 0.20 30.21 0.20ZM29.84-8.22L29.84-8.22Q28.40-8.22 28.13-6.31L28.13-6.31L31.45-6.31L31.45-6.56Q31.46-7.35 31.04-7.79Q30.63-8.22 29.84-8.22ZM35.61-5.24L35.61-5.36Q35.61-6.96 36.13-8.19Q36.66-9.42 37.65-10.09Q38.63-10.76 39.94-10.76L39.94-10.76Q41.59-10.76 42.52-9.65L42.52-9.65L42.64-10.57L45.63-10.57L45.63-0.40Q45.63 1.00 44.98 2.03Q44.33 3.06 43.10 3.61Q41.87 4.16 40.24 4.16L40.24 4.16Q39.08 4.16 37.99 3.72Q36.90 3.28 36.33 2.58L36.33 2.58L37.71 0.64Q38.62 1.73 40.13 1.73L40.13 1.73Q42.31 1.73 42.31-0.52L42.31-0.52L42.31-0.85Q41.37 0.20 39.92 0.20L39.92 0.20Q37.99 0.20 36.80-1.28Q35.61-2.76 35.61-5.24L35.61-5.24ZM38.91-5.16L38.91-5.16Q38.91-3.86 39.39-3.10Q39.88-2.34 40.76-2.34L40.76-2.34Q41.83-2.34 42.31-3.06L42.31-3.06L42.31-7.50Q41.84-8.22 40.78-8.22L40.78-8.22Q39.90-8.22 39.40-7.44Q38.91-6.65 38.91-5.16ZM53.95-10.64L53.89-7.59L52.80-7.67Q51.25-7.67 50.81-6.69L50.81-6.69L50.81 0L47.52 0L47.52-10.57L50.61-10.57L50.71-9.21Q51.54-10.76 53.03-10.76L53.03-10.76Q53.55-10.76 53.95-10.64L53.95-10.64ZM58.54-10.57L58.54 0L55.24 0L55.24-10.57L58.54-10.57ZM55.05-13.29L55.05-13.29Q55.05-13.99 55.56-14.44Q56.06-14.89 56.88-14.89Q57.69-14.89 58.19-14.44Q58.70-13.99 58.70-13.29Q58.70-12.59 58.19-12.14Q57.69-11.69 56.88-11.69Q56.06-11.69 55.56-12.14Q55.05-12.59 55.05-13.29ZM69.81 0L66.52 0Q66.35-0.32 66.21-0.95L66.21-0.95Q65.30 0.20 63.67 0.20L63.67 0.20Q62.18 0.20 61.13-0.71Q60.09-1.61 60.09-2.98L60.09-2.98Q60.09-4.70 61.36-5.58Q62.63-6.46 65.05-6.46L65.05-6.46L66.06-6.46L66.06-7.01Q66.06-8.47 64.80-8.47L64.80-8.47Q63.63-8.47 63.63-7.31L63.63-7.31L60.34-7.31Q60.34-8.85 61.65-9.80Q62.95-10.76 64.97-10.76Q66.99-10.76 68.16-9.78Q69.34-8.79 69.37-7.07L69.37-7.07L69.37-2.39Q69.38-0.94 69.81-0.17L69.81-0.17L69.81 0ZM64.46-2.15L64.46-2.15Q65.08-2.15 65.48-2.41Q65.89-2.68 66.06-3.01L66.06-3.01L66.06-4.70L65.11-4.70Q63.39-4.70 63.39-3.15L63.39-3.15Q63.39-2.71 63.69-2.43Q63.99-2.15 64.46-2.15Z"></path></g></g></svg>