<svg height="84.21052631578948" width="369.66666666666663" style="width: 369.667px; height: 84.2105px; position: absolute; top: 50%; left: 50%; transform: translate(-50%, -50%) scale(1); z-index: 0; cursor: pointer; overflow: visible;"><defs id="SvgjsDefs1001"></defs><g id="SvgjsG1007" featurekey="S6ay6y-0" transform="matrix(0.8771929824561404,0,0,0.8771929824561404,-2.6315789473684212,-2.6315789473684212)" fill="#231f20"><title xmlns="http://www.w3.org/2000/svg">checkmark</title><description xmlns="http://www.w3.org/2000/svg">Created with Sketch (http://www.bohemiancoding.com/sketch)</description><g xmlns="http://www.w3.org/2000/svg" xmlns:sketch="http://www.bohemiancoding.com/sketch/ns" stroke-width="1" fill-rule="evenodd" sketch:type="MSPage"><g sketch:type="MSArtboardGroup"><path d="M50.5,98 C76.7335269,98 98,76.7335269 98,50.5 C98,24.2664731 76.7335269,3 50.5,3 C24.2664731,3 3,24.2664731 3,50.5 C3,76.7335269 24.2664731,98 50.5,98 L50.5,98 Z M72.6666667,25.1666667 L41,56.8333333 L28.3333333,44.1666667 L22,56.8333333 L41,75.8333333 L79,37.8333333 L72.6666667,25.1666667 L72.6666667,25.1666667 Z" sketch:type="MSShapeGroup" stroke="none" fill="#231f20"></path></g></g></g><g id="SvgjsG1008" featurekey="j5pGhi-0" transform="matrix(3.7737239727289476,0,0,3.7737239727289476,97.17726093922748,-10.325778514833239)" fill="#231f20"><path d="M1.542969 4.941406 l1.445313 0 l0 14.482422 l-1.445312 0 l0 -14.482422 z M6.064454 15.380859 l-0.019531 -1.142578 q-0.029297 -0.839844 0.068359 -1.425781 q0.214844 -1.845703 0.9375 -2.705078 q0.703125 -0.751953 1.435547 -1.162109 q1.210938 -0.517578 2.763672 -0.488281 q1.210938 0 2.241211 0.610352 t1.469727 1.640625 t0.439453 3.227539 l0 5.507813 l-1.367187 0 l0 -5.107422 q0 -1.855469 -0.15625 -2.480469 q-0.244141 -1.064453 -0.966797 -1.508789 t-2.138672 -0.444336 q-1.25 0 -2.226562 0.722656 t-0.908203 1.972656 q-0.185547 0.800781 -0.185547 2.919922 l0 3.925781 l-1.386719 0 l0 -4.0625 z M22.197266 17.929688 q-1.015625 0.546875 -1.992187 0.087891 q-1.191406 -0.908203 -1.132812 -2.587891 l0 -4.53125 l2.539063 0 l0 -1.181641 l-2.548828 0 l0 -5.175781 l-1.386719 0 l0 11.123047 q-0.019531 1.171875 0.537109 2.148438 q0.917969 1.552734 2.5 1.640625 q0.839844 0.029297 1.914063 -0.380859 q-0.166016 -0.410156 -0.429687 -1.142578 z M33.837891 15.634766 l1.152344 0.615234 q-0.556641 1.123047 -1.308594 1.806641 t-1.689453 1.040039 t-2.119141 0.356445 q-2.617187 0 -4.091797 -1.713867 t-1.474609 -3.87207 q0 -2.041016 1.25 -3.632812 q1.582031 -2.03125 4.248047 -2.03125 q2.724609 0 4.365234 2.080078 q1.162109 1.464844 1.171875 3.652344 l-9.619141 0 q0.039063 1.875 1.191406 3.071289 t2.841797 1.196289 q0.820313 0 1.591797 -0.288086 t1.313477 -0.756836 t1.176758 -1.523437 z M33.837891 12.753906 q-0.273437 -1.103516 -0.800781 -1.762695 t-1.396484 -1.064453 t-1.826172 -0.405273 q-1.572266 0 -2.705078 1.015625 q-0.820312 0.742188 -1.240234 2.216797 l7.96875 0 z M48.525391 17.011719 q0 2.255859 -0.400391 3.300781 q-0.537109 1.474609 -1.879883 2.270508 t-3.217773 0.795898 q-1.386719 0 -2.480469 -0.390625 t-1.787109 -1.044922 t-1.269531 -1.914062 l1.494141 0 q0.615234 1.064453 1.577148 1.572266 t2.397461 0.507813 q1.40625 0 2.37793 -0.527344 t1.381836 -1.318359 t0.410156 -2.568359 l0 -0.546875 q-0.771484 0.986328 -1.899414 1.513672 t-2.37793 0.527344 q-1.474609 0 -2.77832 -0.732422 t-2.011719 -1.977539 t-0.708008 -2.729492 t0.737305 -2.768555 t2.045898 -2.03125 t2.744141 -0.74707 q1.210938 0 2.197266 0.371094 q0.830078 0.302734 1.962891 1.162109 q0.957031 0.791016 1.503906 3.017578 q-0.019531 0.292969 -0.019531 4.257813 z M43.056641 9.53125 q-1.171875 0 -2.172852 0.566406 t-1.572266 1.5625 t-0.571289 2.158203 q0 1.767578 1.181641 2.919922 t3.056641 1.152344 q1.914063 0 3.066406 -1.142578 t1.152344 -3.007812 q0 -1.210937 -0.532227 -2.158203 t-1.503906 -1.499023 t-2.104492 -0.551758 z M50.927734 14.541016 l0 -1.289062 q0.15625 -0.966797 0.449219 -1.572266 q0.683594 -1.679687 1.835938 -2.460937 t1.914063 -0.78125 q0.566406 0 1.210938 0.371094 l-0.712891 1.152344 q-0.908203 -0.332031 -1.801758 0.537109 t-1.235352 1.894531 q-0.253906 0.908203 -0.253906 3.408203 l0 3.623047 l-1.40625 0 l0 -4.882812 z M57.988282 4.326172 q0.46875 0 0.805664 0.332031 t0.336914 0.800781 t-0.336914 0.805664 t-0.805664 0.336914 t-0.800781 -0.336914 t-0.332031 -0.805664 t0.332031 -0.800781 t0.800781 -0.332031 z M57.304688 8.730469 l1.376953 0 l0 10.712891 l-1.376953 0 l0 -10.712891 z M66.591797 8.203125 q2.470703 0 4.101563 1.787109 q1.503906 1.630859 1.503906 3.876953 q0.019531 5.546875 0 5.634766 l-1.455078 0 l0 -2.431641 q-1.142578 2.128906 -4.150391 2.382813 q-2.460937 0 -4.018555 -1.674805 t-1.557617 -3.911133 q0 -2.226562 1.474609 -3.867187 q1.630859 -1.796875 4.101563 -1.796875 z M66.591797 9.550781 q-1.708984 0 -2.939453 1.269531 t-1.230469 3.066406 q0 1.162109 0.629883 2.236328 t2.133789 1.816406 q3.769531 0.839844 5.361328 -3.427734 q0.087891 -1.367187 -0.292969 -2.617187 q-0.273437 -0.566406 -0.751953 -1.074219 q-1.201172 -1.269531 -2.910156 -1.269531 z"></path></g></svg>